<svg xmlns="http://www.w3.org/2000/svg" viewBox="0 0 100 100" fill="none">
  <defs>
    <linearGradient id="logoGradient" x1="0%" y1="0%" x2="100%" y2="100%">
      <stop offset="0%" style="stop-color:rgb(2,132,199);stop-opacity:1" />
      <stop offset="100%" style="stop-color:rgb(147,51,234);stop-opacity:1" />
    </linearGradient>
  </defs>
  <!-- Background Circle -->
  <circle cx="50" cy="50" r="48" fill="url(#logoGradient)" />
  <!-- Brain-Heart Icon (white) -->
  <g fill="white">
    <!-- Left brain hemisphere -->
    <path d="M30 42c0-8 5-14 12-14s10 4 10 10c0 4-2 7-5 9l-2 2c-1 1-2 3-2 5v8c0 2-1 3-3 3s-3-1-3-3v-8c0-4 2-6 4-8l2-2c2-1 3-3 3-5 0-3-2-5-5-5s-7 4-7 9c0 2-1 3-2 3s-2-1-2-4z" opacity="0.9"/>
    <!-- Right brain hemisphere -->
    <path d="M70 42c0-8-5-14-12-14s-10 4-10 10c0 4 2 7 5 9l2 2c1 1 2 3 2 5v8c0 2 1 3 3 3s3-1 3-3v-8c0-4-2-6-4-8l-2-2c-2-1-3-3-3-5 0-3 2-5 5-5s7 4 7 9c0 2 1 3 2 3s2-1 2-4z" opacity="0.9"/>
    <!-- Heart at center bottom -->
    <path d="M50 72l-1-1c-8-7-13-12-13-17 0-4 3-7 7-7 2 0 4 1 5 3l2 2 2-2c1-2 3-3 5-3 4 0 7 3 7 7 0 5-5 10-13 17l-1 1z"/>
  </g>
</svg>
